<svg width="14" height="16" viewBox="0 0 14 16" fill="none" xmlns="http://www.w3.org/2000/svg">
<path fill-rule="evenodd" clip-rule="evenodd" d="M9.93902 6.34755C9.93902 8.54322 8.15908 10.3232 5.96341 10.3232C3.76774 10.3232 1.9878 8.54322 1.9878 6.34755C1.9878 4.15189 3.76774 2.37195 5.96341 2.37195C8.15908 2.37195 9.93902 4.15189 9.93902 6.34755ZM8.92455 11.525C8.05208 12.0251 7.04113 12.311 5.96341 12.311C2.66991 12.311 0 9.64106 0 6.34755C0 3.05405 2.66991 0.384144 5.96341 0.384144C9.25691 0.384144 11.9268 3.05405 11.9268 6.34755C11.9268 7.84599 11.3742 9.21535 10.4616 10.2629L14 14.3069L12.504 15.6159L8.92455 11.525Z" fill="white"/>
</svg>
